/* XPM */
static char *noname[] = {
/* width height ncolors chars_per_pixel */
"48 48 8 1",
/* colors */
"` c #545494",
"a c #EBE6F6",
"b c #FB9491",
"c c #1F1F1F",
"d c #D6C0D6",
"e c #A0467D",
"f c #C38B78",
"g c #BD1212",
/* pixels */
"ddddddddddddddddddaaaaaaaaaaaaaaaaaaaaaaaaaaaaa`",
"dddddddddddddddddaaaaaaaaaaaaaaaaaaaaaaaaaaaaaa`",
"dd``````````````````ddddddddddddddddddddddddd```",
"ddaaaaaaaaaaaaaaaaaaaaaaaaaaaaaddddaaaaaaaaaa```",
"ddaggggggggggggggggggfabggggggddddaagggggggga```",
"ddaggggggggggggggggggfabggggggdddaagggggggeaa```",
"ddaggggggggggggggggggfabggggggdaaagggggggeaad```",
"ddaggggggggggggggggggfabggggggdaagggggggfaadd```",
"ddafffbffggggggedffffdabggggggdagggggggfaaddd```",
"ddddddddaggggggeadddddabggggggfgggggggfaadddd```",
"dd``````aggggggeadddddabgggggggggggggbaaddddd```",
"dd``````aggggggeadddddabgggggggggggggaadddddd```",
"dd`````daggggggeadddddabggggggggggggggaaddddd```",
"dd``````aggggggeadddddabgggggggggggggggaddddd```",
"da`````daggggggeacccccfbggggggggeggggggdadddd```",
"ad`````daggggggeacccccfbggggggggafggggggdaddd```",
"da`````daggggggedfffffdbggggggeadaegggggcaadd```",
"ad`````daggggggedfffffdbggggggdacdbggggggfaad```",
"da`````daggggggeafffffdbggggggdbfbadggggggfad```",
"dd`````daggggggeafffffdbggggggdbff`aeggggggaa```",
"ad`````daggggggeafffffdbggggggdbfffaaggggggea```",
"dd`````daggggggeafffffdbggggggdbffffagggggggef``",
"dd`````caaaaaaaaafffffdaaaaaaaabffffaaaaaaaaaf``",
"dd`````ccfffffffffffffffffffffffffffffccccddd```",
"dd`````ccffccccfffffffffffffffffffffffffccccd```",
"dd`````ccffccccfffffffffffffffffffffffffccccd```",
"da`````ccffccccffffccccfffffffffffffffffffccd```",
"aa`````ccffccccffffccccfffffffffffffffffffccd```",
"aa```ccccffffffffffccccfffffffffffffffffffcccc``",
"aa```ccccffffffffffccccfffffffffffffffffffcccc``",
"aa`ccccccccffffffffffffffffcccccffffffffffffcc``",
"aa`ccccccccffffffffffffffffcccccffffffffffffcc``",
"afccc``ccccccccccccccffffcccccccccfffffffffffccc",
"afccc``ccccccccccccccffffcccccccccfffffffffffccc",
"dfcd`ccccddddddddddccccccfffffffccfffffffffffccc",
"dfcddccccddddddddddccccccfffffffccfffffffffffccc",
"aadccccddddddddddddddddcccccccccccccccfffffffccc",
"aadccccddddddddddddddddcccccccccccccccfffffffccc",
"afcccccccccccccccccccdddddddddddddccccfffffffccc",
"afcccccccccccccccccccdddddddddddddccccfffffffccc",
"dfcaaddddddddddddddccccdddddddddddccccfffffffccc",
"dfcaaddddddddddddddccccdddddddddddccccfffffffccc",
"aadccccccaadddddddddddddddddddddddcccccccccccccc",
"aadccccccaadddddddddddddddddddddddcccccccccccccc",
"aadddddddcccccccccccccccccc`c```ccccccddddddcccc",
"aa``dddddcccccccccccccccccc`````ccccccddddddcccc",
"aa``````````````````````````````````````````````",
"````````````````````````````````````````````````"
};
